# xmcd
# 
# Track frame offsets:
#	150
#	18730
#	48291
#	67682
#	107791
#	135522
#	160026
#	176915
#
# Disc length: 2824 seconds
#
# Revision: 1
# Processed by: cddbd v1.4PL0 Copyright (c) Steve Scherf et al.
# Submitted via: Audio-CD-Archiv 2.10.446
#
DISCID=620b0608
DTITLE=Eric Clapton - Timepeaces Vol.II - Live In The Seventies
DYEAR=1900
DGENRE=blues
TTITLE0=Tulsa Time
TTITLE1=Knockin' On Heavens Door
TTITLE2=I'll Don't Be There By Morning
TTITLE3=Rambling OnMy Mind
TTITLE4=Presence Of The Lord
TTITLE5=Can't Find My Way Home
TTITLE6=Smile
TTITLE7=Blues Power
EXTD=
EXTT0=
EXTT1=
EXTT2=
EXTT3=
EXTT4=
EXTT5=
EXTT6=
EXTT7=
PLAYORDER=
